<svg width="36" height="30" viewBox="0 0 36 30" fill="none" xmlns="http://www.w3.org/2000/svg">
<g filter="url(#filter0_d_321_6)">
<path d="M5.25 3.125H7.65424C8.13263 3.125 8.37183 3.125 8.56628 3.21174C8.73771 3.28821 8.88415 3.41138 8.98886 3.56717C9.10763 3.74388 9.14862 3.97954 9.23058 4.45085L9.76087 7.5M9.76087 7.5L10.9917 14.5774C11.1709 15.6077 11.2605 16.1228 11.5258 16.4939C11.7595 16.8207 12.0861 17.0695 12.4631 17.208C12.8913 17.3654 13.4118 17.315 14.4526 17.2143L27.9832 15.9048C29.0046 15.806 29.5152 15.7566 29.9012 15.5259C30.2411 15.3227 30.513 15.0232 30.6825 14.6652C30.875 14.2589 30.875 13.7458 30.875 12.7197V11.2317C30.875 10.1412 30.875 9.5959 30.665 9.17455C30.4802 8.80377 30.1848 8.49953 29.8197 8.30385C29.4047 8.08148 28.8597 8.06535 27.7697 8.03308L9.76087 7.5Z" stroke="#262F56" stroke-width="1.8" stroke-linecap="round" stroke-linejoin="round" shape-rendering="crispEdges"/>
</g>
<circle cx="14.625" cy="23.75" r="2.5" stroke="#262F56" stroke-width="1.8"/>
<circle cx="26.5" cy="23.75" r="2.5" stroke="#262F56" stroke-width="1.8"/>
<defs>
<filter id="filter0_d_321_6" x="0.350006" y="2.22498" width="35.425" height="23.9836" filterUnits="userSpaceOnUse" color-interpolation-filters="sRGB">
<feFlood flood-opacity="0" result="BackgroundImageFix"/>
<feColorMatrix in="SourceAlpha" type="matrix" values="0 0 0 0 0 0 0 0 0 0 0 0 0 0 0 0 0 0 127 0" result="hardAlpha"/>
<feOffset dy="4"/>
<feGaussianBlur stdDeviation="2"/>
<feComposite in2="hardAlpha" operator="out"/>
<feColorMatrix type="matrix" values="0 0 0 0 0 0 0 0 0 0 0 0 0 0 0 0 0 0 0.25 0"/>
<feBlend mode="normal" in2="BackgroundImageFix" result="effect1_dropShadow_321_6"/>
<feBlend mode="normal" in="SourceGraphic" in2="effect1_dropShadow_321_6" result="shape"/>
</filter>
</defs>
</svg>
