<svg width="26" height="26" viewBox="0 0 26 26" fill="none" xmlns="http://www.w3.org/2000/svg">
<g filter="url(#filter0_d_2_58)">
<path d="M13 0C11.22 0 9.47991 0.527841 7.99987 1.51677C6.51983 2.50571 5.36628 3.91131 4.68509 5.55585C4.0039 7.20038 3.82567 9.00998 4.17294 10.7558C4.5202 12.5016 5.37737 14.1053 6.63604 15.364C7.89472 16.6226 9.49836 17.4798 11.2442 17.8271C12.99 18.1743 14.7996 17.9961 16.4442 17.3149C18.0887 16.6337 19.4943 15.4802 20.4832 14.0001C21.4722 12.5201 22 10.78 22 9C21.9973 6.61388 21.0482 4.32626 19.361 2.63902C17.6737 0.951776 15.3861 0.0026982 13 0V0ZM17.2426 5.81799L13.5304 9.53032C13.4607 9.59997 13.378 9.65522 13.2871 9.69291C13.1961 9.73061 13.0985 9.75001 13 9.75002C12.9015 9.75002 12.804 9.73063 12.713 9.69294C12.622 9.65525 12.5393 9.60001 12.4697 9.53037C12.4 9.46072 12.3448 9.37804 12.3071 9.28705C12.2694 9.19606 12.25 9.09853 12.25 9.00003C12.25 8.90154 12.2694 8.80401 12.3071 8.71301C12.3448 8.62201 12.4 8.53933 12.4696 8.46968L16.182 4.75736C16.2516 4.68771 16.3343 4.63246 16.4253 4.59477C16.5163 4.55708 16.6138 4.53767 16.7123 4.53767C16.8108 4.53767 16.9083 4.55707 16.9993 4.59476C17.0903 4.63245 17.173 4.68769 17.2426 4.75733C17.3123 4.82697 17.3675 4.90965 17.4052 5.00065C17.4429 5.09164 17.4623 5.18916 17.4623 5.28766C17.4623 5.38615 17.4429 5.48368 17.4052 5.57467C17.3675 5.66567 17.3123 5.74835 17.2427 5.81799H17.2426Z" fill="black"/>
</g>
<defs>
<filter id="filter0_d_2_58" x="0" y="0" width="26" height="26" filterUnits="userSpaceOnUse" color-interpolation-filters="sRGB">
<feFlood flood-opacity="0" result="BackgroundImageFix"/>
<feColorMatrix in="SourceAlpha" type="matrix" values="0 0 0 0 0 0 0 0 0 0 0 0 0 0 0 0 0 0 127 0" result="hardAlpha"/>
<feOffset dy="4"/>
<feGaussianBlur stdDeviation="2"/>
<feComposite in2="hardAlpha" operator="out"/>
<feColorMatrix type="matrix" values="0 0 0 0 0 0 0 0 0 0 0 0 0 0 0 0 0 0 0.25 0"/>
<feBlend mode="normal" in2="BackgroundImageFix" result="effect1_dropShadow_2_58"/>
<feBlend mode="normal" in="SourceGraphic" in2="effect1_dropShadow_2_58" result="shape"/>
</filter>
</defs>
</svg>
